HIERARCHY
ROOT Hips
{
	OFFSET -0.001795 -0.223333 0.028219
	CHANNELS 6 Xposition Yposition Zposition Zrotation Yrotation Xrotation 
	JOINT LeftUpLeg
	{
		OFFSET 0.069520 -0.091406 -0.006815
		CHANNELS 3 Zrotation Yrotation Xrotation
		JOINT LeftLeg
		{
			OFFSET 0.034277 -0.375199 -0.004496
			CHANNELS 3 Zrotation Yrotation Xrotation
			JOINT LeftFoot
			{
				OFFSET -0.013596 -0.397961 -0.043693
				CHANNELS 3 Zrotation Yrotation Xrotation
				JOINT LeftToe
				{
					OFFSET 0.026358 -0.055791 0.119288
					CHANNELS 3 Zrotation Yrotation Xrotation
					End Site
					{
						OFFSET 0.000000 0.000000 0.000000
					}
				}
			}
		}
	}
	JOINT RightUpLeg
	{
		OFFSET -0.067670 -0.090522 -0.004320
		CHANNELS 3 Zrotation Yrotation Xrotation
		JOINT RightLeg
		{
			OFFSET -0.038290 -0.382569 -0.008850
			CHANNELS 3 Zrotation Yrotation Xrotation
			JOINT RightFoot
			{
				OFFSET 0.015774 -0.398415 -0.042312
				CHANNELS 3 Zrotation Yrotation Xrotation
				JOINT RightToe
				{
					OFFSET -0.025372 -0.048144 0.123348
					CHANNELS 3 Zrotation Yrotation Xrotation
					End Site
					{
						OFFSET 0.000000 0.000000 0.000000
					}
				}
			}
		}
	}
	JOINT Spine
	{
		OFFSET -0.002533 0.108963 -0.026696
		CHANNELS 3 Zrotation Yrotation Xrotation
		JOINT Spine1
		{
			OFFSET 0.005487 0.135180 0.001092
			CHANNELS 3 Zrotation Yrotation Xrotation
			JOINT Spine2
			{
				OFFSET 0.001457 0.052922 0.025425
				CHANNELS 3 Zrotation Yrotation Xrotation
				JOINT Neck
				{
					OFFSET -0.002778 0.213870 -0.042857
					CHANNELS 3 Zrotation Yrotation Xrotation
					JOINT Head
					{
						OFFSET 0.005152 0.064970 0.051349
						CHANNELS 3 Zrotation Yrotation Xrotation
						End Site
						{
							OFFSET 0.000000 0.000000 0.000000
						}
					}
				}
				JOINT LeftShoulder
				{
					OFFSET 0.078845 0.121749 -0.034090
					CHANNELS 3 Zrotation Yrotation Xrotation
					JOINT LeftArm
					{
						OFFSET 0.090977 0.030469 -0.008868
						CHANNELS 3 Zrotation Yrotation Xrotation
						JOINT LeftForeArm
						{
							OFFSET 0.259612 -0.012772 -0.027456
							CHANNELS 3 Zrotation Yrotation Xrotation
							JOINT LeftHand
							{
								OFFSET 0.249234 0.008986 -0.001171
								CHANNELS 3 Zrotation Yrotation Xrotation
								End Site
								{
									OFFSET 0.000000 0.000000 0.000000
								}
							}
						}
					}
				}
				JOINT RightShoulder
				{
					OFFSET -0.081759 0.118833 -0.038615
					CHANNELS 3 Zrotation Yrotation Xrotation
					JOINT RightArm
					{
						OFFSET -0.096012 0.032551 -0.009143
						CHANNELS 3 Zrotation Yrotation Xrotation
						JOINT RightForeArm
						{
							OFFSET -0.253742 -0.013329 -0.021401
							CHANNELS 3 Zrotation Yrotation Xrotation
							JOINT RightHand
							{
								OFFSET -0.255298 0.007772 -0.005559
								CHANNELS 3 Zrotation Yrotation Xrotation
								End Site
								{
									OFFSET 0.000000 0.000000 0.000000
								}
							}
						}
					}
				}
			}
		}
	}
}
MOTION
Frames: 7
Frame Time: 0.050000
0.000000 0.916609 0.000000 1.105895 -13.616046 1.306545 -7.903015 -3.189894 -24.023947 1.365980 -0.379407 6.706391 2.711507 7.941034 16.032799 0.000000 0.000000 0.000000 3.257875 -1.283123 11.449262 0.478506 0.816669 14.617844 -2.251488 -3.905155 -2.343249 0.000000 0.000000 0.000000 -0.747315 -0.073875 2.640784 -2.141227 0.887436 -3.873612 3.506923 10.711068 9.900927 3.985976 0.057434 -26.106949 0.000000 0.000000 0.000000 -20.076153 -2.511690 -1.095101 -50.583029 -4.450611 -4.468402 -103.867629 -55.428346 71.263258 0.000000 0.000000 0.000000 14.747531 9.370281 3.969232 54.705520 15.770584 1.338789 85.517733 58.393111 59.000324 0.000000 0.000000 0.000000 
-0.010044 0.918858 0.048423 0.631507 -10.535129 1.147810 -9.011036 -3.181797 -21.082641 1.425387 -0.458172 8.498742 2.809734 7.868955 11.407183 0.000000 0.000000 0.000000 2.984479 -1.323207 11.534265 3.312471 0.458987 20.892615 0.207730 -0.810854 2.089878 0.000000 0.000000 0.000000 -1.500889 -0.014346 1.409472 -0.997018 0.424204 -3.565668 3.271221 9.964915 10.503499 3.813343 0.227832 -25.650427 0.000000 0.000000 0.000000 -22.723249 -0.951200 -2.588779 -47.224391 -4.716051 -3.992891 -103.943061 -52.418356 67.212484 0.000000 0.000000 0.000000 13.517574 6.082214 2.514936 56.661675 12.139872 -0.315124 92.646241 53.365061 60.568390 0.000000 0.000000 0.000000 
-0.018605 0.925890 0.094969 1.619710 -12.200283 0.076469 -10.774111 -3.053619 -18.271349 1.495924 -0.503847 11.420062 4.081649 9.392089 6.965202 0.000000 0.000000 0.000000 -1.796249 -0.410929 8.034679 6.791430 0.109495 31.850200 1.598025 -0.274152 6.362301 0.000000 0.000000 0.000000 -1.736720 -0.007155 1.224121 -2.139044 0.919760 -3.269795 2.978491 10.274656 10.002986 3.013758 0.457963 -24.326240 0.000000 0.000000 0.000000 -21.357684 -0.713546 -2.392833 -48.347394 -4.384322 -4.252280 -101.885104 -53.941579 67.238395 0.000000 0.000000 0.000000 14.376711 6.369717 2.546482 55.266917 9.744143 -1.442644 89.457309 54.263690 58.252125 0.000000 0.000000 0.000000 
-0.025910 0.929466 0.136682 2.067024 -11.597825 -0.367083 -12.090310 -2.679630 -14.721709 1.608119 -0.512907 9.985850 3.198643 7.749158 6.229087 0.000000 0.000000 0.000000 -3.473202 0.010191 2.889576 8.991866 -0.318832 42.500583 0.196206 -4.754196 9.913482 0.000000 0.000000 0.000000 -2.538285 0.012772 1.128158 -2.136820 0.979471 -1.417478 2.636340 7.728365 8.119676 3.184951 0.051565 -23.680305 0.000000 0.000000 0.000000 -22.027149 0.297630 -2.504186 -47.292807 -4.143638 -4.245959 -105.090976 -53.144031 70.357929 0.000000 0.000000 0.000000 14.048699 7.035062 2.408032 54.113926 7.377787 -2.303981 94.018190 53.799263 60.211678 0.000000 0.000000 0.000000 
-0.032747 0.932977 0.173962 1.933045 -11.094543 -1.337336 -12.407865 -1.928242 -10.117896 1.973152 -0.558426 8.399648 2.644579 6.544269 4.827811 0.000000 0.000000 0.000000 -5.095934 0.338933 -2.137611 11.025379 -1.150409 50.269234 -2.671447 -10.161811 9.929108 0.000000 0.000000 0.000000 -1.974907 -0.027236 1.939401 -2.227146 1.008795 -1.885997 1.894847 5.694916 8.577953 2.805651 0.103871 -24.536789 0.000000 0.000000 0.000000 -22.735556 -0.318776 -1.698509 -45.708078 -5.226559 -3.922468 -107.890907 -54.220351 75.469885 0.000000 0.000000 0.000000 14.480975 7.102997 2.100786 52.618795 5.586892 -3.065765 93.676614 53.560240 58.679716 0.000000 0.000000 0.000000 
-0.038869 0.936123 0.208160 1.529040 -10.114089 -2.473448 -12.163378 -1.243876 -6.366742 1.807374 -0.534817 8.375904 2.215969 5.294590 2.346714 0.000000 0.000000 0.000000 -5.732836 0.599756 -7.400170 11.304509 -1.485666 53.981668 -4.910286 -14.060763 8.431198 0.000000 0.000000 0.000000 -0.853081 -0.092009 2.952751 -2.156863 0.977960 -2.098892 1.201362 3.413998 9.354438 1.871410 0.360514 -24.456295 0.000000 0.000000 0.000000 -23.004906 -0.619689 -1.004246 -45.340186 -6.341060 -3.731965 -110.530356 -55.119652 80.383360 0.000000 0.000000 0.000000 15.371648 7.229987 1.789775 49.769457 3.831872 -3.623515 97.292539 54.457097 61.882011 0.000000 0.000000 0.000000 
-0.044594 0.938538 0.240081 0.737089 -8.437372 -3.345830 -11.882831 -0.512148 -2.556289 2.562218 -0.671716 7.576912 2.006491 4.552171 0.825974 0.000000 0.000000 0.000000 -5.570354 0.846900 -11.897858 11.220253 -1.978822 53.922402 -6.652367 -17.012002 5.236549 0.000000 0.000000 0.000000 -0.108434 -0.160405 4.272683 -1.609701 0.735951 -2.199541 0.946179 1.339938 9.657013 1.810297 0.274993 -24.956538 0.000000 0.000000 0.000000 -22.411082 -0.563363 -0.661224 -45.940451 -7.597901 -3.440412 -111.124032 -55.486001 82.177780 0.000000 0.000000 0.000000 14.544083 6.187649 1.100524 47.961170 2.678668 -3.929340 99.129619 53.057514 61.178381 0.000000 0.000000 0.000000 
